# xmcd
#
# Track frame offsets:
#	150
#	16567
#	38425
#	56800
#
# Disc length: 1121 seconds
#
# Revision: 2
# Processed by: cddbd v1.5.1PL2 Copyright (c) Steve Scherf et al.
# Submitted via: audiograbber 1.80
#
DISCID=21045f04
DTITLE=Gloria Gaynor - Be Soft With Me Tonight
DYEAR=1900
DGENRE=
TTITLE0=Be Soft With Me Tonight (The Wild Boys Radio Edit)
TTITLE1=Be Soft With Me Tonight (The Wild Boys Remix)
TTITLE2=Be Soft With Me Tonight (The Original S.A.W. Edit)
TTITLE3=Be Soft With Me Tonight (The Original S.A.W. Mix)
EXTD=
EXTT0=
EXTT1=
EXTT2=
EXTT3=
PLAYORDER=
